<svg width="16" height="14" viewBox="0 0 16 14" fill="none" xmlns="http://www.w3.org/2000/svg">
<path d="M1.16191 6.02425C1.60955 3.78608 1.83336 2.66697 2.57292 1.94619C2.70961 1.81297 2.85749 1.69175 3.01492 1.58384C3.86674 1 5.00801 1 7.29054 1H8.70962C10.9922 1 12.1335 1 12.9853 1.58384C13.1427 1.69175 13.2905 1.81297 13.4273 1.94619C14.1668 2.66697 14.3906 3.78608 14.8383 6.02425C15.481 9.23758 15.8023 10.8442 15.0625 11.9827C14.9286 12.1889 14.7723 12.3796 14.5965 12.5513C13.6251 13.5 11.9866 13.5 8.70962 13.5H7.29054C4.01356 13.5 2.37507 13.5 1.40376 12.5513C1.22789 12.3796 1.07156 12.1889 0.937622 11.9827C0.197906 10.8442 0.519239 9.23758 1.16191 6.02425Z" stroke="#2D3B36"/>
</svg>
